/* XPM */
static char * download32x32_xpm[] = {
"32 32 494 2",
"  	c None",
". 	c #1A252E",
"+ 	c #1A2833",
"@ 	c #14212D",
"# 	c #101F2C",
"$ 	c #0D1E30",
"% 	c #09192A",
"& 	c #394C56",
"* 	c #5C7C8F",
"= 	c #7EAFCF",
"- 	c #89CBFB",
"; 	c #78BFFA",
"> 	c #62B0F9",
", 	c #4A9FF5",
"' 	c #2E74C1",
") 	c #19467B",
"! 	c #0C2444",
"~ 	c #141F1A",
"{ 	c #607F7D",
"] 	c #99C5D0",
"^ 	c #AADFEE",
"/ 	c #B1E4FA",
"( 	c #A2DBE6",
"_ 	c #8FCFE3",
": 	c #7BC1E5",
"< 	c #62B0F5",
"[ 	c #4399F3",
"} 	c #3181DF",
"| 	c #2160B2",
"1 	c #103469",
"2 	c #040F20",
"3 	c #0C0D0C",
"4 	c #8BA78E",
"5 	c #BCDFC8",
"6 	c #BAE3CB",
"7 	c #BAE3CC",
"8 	c #B3E1C8",
"9 	c #A7DBB6",
"0 	c #8FD0A2",
"a 	c #94D1AB",
"b 	c #79C2B5",
"c 	c #52A7E2",
"d 	c #388EEB",
"e 	c #2A76D4",
"f 	c #1D5BB4",
"g 	c #0D367A",
"h 	c #010610",
"i 	c #07090B",
"j 	c #518169",
"k 	c #A5D8B1",
"l 	c #D0EBD1",
"m 	c #CEEBCF",
"n 	c #CBE9CC",
"o 	c #BFE4C1",
"p 	c #AEDDB0",
"q 	c #93D195",
"r 	c #7DC881",
"s 	c #84CB88",
"t 	c #56AEBE",
"u 	c #4197F1",
"v 	c #2E7EDC",
"w 	c #2165C2",
"x 	c #134AA5",
"y 	c #05225D",
"z 	c #00050F",
"A 	c #445F71",
"B 	c #99CCDB",
"C 	c #BAE2C0",
"D 	c #D1ECD3",
"E 	c #CDEACF",
"F 	c #A1D7A3",
"G 	c #94D1A2",
"H 	c #92D193",
"I 	c #85CC97",
"J 	c #70C38A",
"K 	c #59B1BA",
"L 	c #479DF3",
"M 	c #3183E1",
"N 	c #2369C6",
"O 	c #154FAB",
"P 	c #073186",
"Q 	c #011643",
"R 	c #16242E",
"S 	c #628EAA",
"T 	c #9CD5C1",
"U 	c #CBE9CE",
"V 	c #CFEBD1",
"W 	c #CBE9CD",
"X 	c #C3E6C5",
"Y 	c #AADBAB",
"Z 	c #AFDEB0",
"` 	c #98D49A",
" .	c #84CAA7",
"..	c #64B5DD",
"+.	c #499EF4",
"@.	c #3184E2",
"#.	c #246AC7",
"$.	c #1650AC",
"%.	c #073693",
"&.	c #02226A",
"*.	c #000A1E",
"=.	c #2A445B",
"-.	c #6DA8B6",
";.	c #AEDCBF",
">.	c #C7E8C9",
",.	c #CAE9CC",
"'.	c #96AD98",
").	c #5E795F",
"!.	c #5A7C5B",
"~.	c #597A59",
"{.	c #567956",
"].	c #527752",
"^.	c #4B744B",
"/.	c #34685B",
"(.	c #1C5460",
"_.	c #20589B",
":.	c #2368C5",
"<.	c #154EAA",
"[.	c #063592",
"}.	c #022B85",
"|.	c #01143E",
"1.	c #2E5171",
"2.	c #73B8BF",
"3.	c #AFDCB7",
"4.	c #C0E5C2",
"5.	c #C3E6C4",
"6.	c #637464",
"7.	c #398839",
"8.	c #59C359",
"9.	c #66C666",
"0.	c #70C970",
"a.	c #79CB79",
"b.	c #7ECC7E",
"c.	c #6FC96F",
"d.	c #007901",
"e.	c #143866",
"f.	c #2064C0",
"g.	c #134AA6",
"h.	c #063390",
"i.	c #05349F",
"j.	c #021A51",
"k.	c #24486C",
"l.	c #67B2C0",
"m.	c #A4D6AD",
"n.	c #B5E0B6",
"o.	c #B7E0B8",
"p.	c #596D5A",
"q.	c #469F46",
"r.	c #71E971",
"s.	c #81ED81",
"t.	c #8FF08F",
"u.	c #9CF49C",
"v.	c #A4F6A4",
"w.	c #91F191",
"x.	c #008E00",
"y.	c #113360",
"z.	c #1C5BB8",
"A.	c #0F439E",
"B.	c #073490",
"C.	c #0F44A7",
"D.	c #041E59",
"E.	c #1B426A",
"F.	c #56A6C7",
"G.	c #94CEA3",
"H.	c #A8DAA8",
"I.	c #A8D9A8",
"J.	c #4F684F",
"K.	c #48A048",
"L.	c #76EA76",
"M.	c #87EE87",
"N.	c #97F297",
"O.	c #A6F6A6",
"P.	c #B3F9B3",
"Q.	c #9FF49F",
"R.	c #0E2E5B",
"S.	c #1751AE",
"T.	c #0A3995",
"U.	c #093896",
"V.	c #104BAC",
"W.	c #042268",
"X.	c #173D68",
"Y.	c #4394CD",
"Z.	c #65AC8B",
"`.	c #98D399",
" +	c #8DCA96",
".+	c #375843",
"++	c #49A049",
"@+	c #77EA77",
"#+	c #89EF89",
"$+	c #9AF39A",
"%+	c #AAF7AA",
"&+	c #B9FAB9",
"*+	c #0B2855",
"=+	c #1045A1",
"-+	c #063290",
";+	c #10459D",
">+	c #104EB1",
",+	c #031E5E",
"'+	c #070707",
")+	c #1A3658",
"!+	c #2B75C5",
"~+	c #388AC5",
"{+	c #80C483",
"]+	c #78BE88",
"^+	c #284D40",
"/+	c #489F48",
"(+	c #75EA75",
"_+	c #B2F9B2",
":+	c #07214D",
"<+	c #093894",
"[+	c #083595",
"}+	c #1655A5",
"|+	c #0E47AB",
"1+	c #011B58",
"2+	c #2E2E2E",
"3+	c #636363",
"4+	c #989898",
"5+	c #ABABAB",
"6+	c #4B586B",
"7+	c #1D559D",
"8+	c #2A76D2",
"9+	c #489478",
"0+	c #72BE76",
"a+	c #365C39",
"b+	c #459F45",
"c+	c #70E970",
"d+	c #80ED80",
"e+	c #9BF39B",
"f+	c #A3F5A3",
"g+	c #031945",
"h+	c #053190",
"i+	c #10489D",
"j+	c #1A5EAC",
"k+	c #083696",
"l+	c #01133F",
"m+	c #696969",
"n+	c #E5E5E5",
"o+	c #E2E2E2",
"p+	c #DDDDDD",
"q+	c #D5D5D5",
"r+	c #77787A",
"s+	c #0D2B44",
"t+	c #13446F",
"u+	c #164A6A",
"v+	c #1E5446",
"w+	c #1B3B1E",
"x+	c #41A141",
"y+	c #67E667",
"z+	c #82ED82",
"A+	c #8BEF8B",
"B+	c #92F192",
"C+	c #009200",
"D+	c #011929",
"E+	c #062F59",
"F+	c #104361",
"G+	c #0C3C66",
"H+	c #032252",
"I+	c #0E1118",
"J+	c #818181",
"K+	c #F5F5F5",
"L+	c #EAEAEA",
"M+	c #858585",
"N+	c #0B3C0B",
"O+	c #096E09",
"P+	c #127612",
"Q+	c #1B791B",
"R+	c #237B23",
"S+	c #45C245",
"T+	c #5DE45D",
"U+	c #6BE76B",
"V+	c #7CEC7C",
"W+	c #73EA73",
"X+	c #0BB40B",
"Y+	c #0B750B",
"Z+	c #0A750A",
"`+	c #077407",
" @	c #006A00",
".@	c #103C10",
"+@	c #515151",
"@@	c #464646",
"#@	c #7D7D7D",
"$@	c #F6F6F6",
"%@	c #E1E1E1",
"&@	c #BCBCBC",
"*@	c #405F40",
"=@	c #0EA10E",
"-@	c #1CD31C",
";@	c #2BD72B",
">@	c #38DA38",
",@	c #45DE45",
"'@	c #52E152",
")@	c #6DE86D",
"!@	c #4ADF4A",
"~@	c #46DE46",
"{@	c #41DD41",
"]@	c #21D421",
"^@	c #039003",
"/@	c #3A543A",
"(@	c #9E9E9E",
"_@	c #9C9C9C",
":@	c #414141",
"<@	c #787878",
"[@	c #EEEEEE",
"}@	c #F7F7F7",
"|@	c #E9E9E9",
"1@	c #E0E0E0",
"2@	c #ACACAC",
"3@	c #255025",
"4@	c #13C613",
"5@	c #22D522",
"6@	c #2ED82E",
"7@	c #3ADB3A",
"8@	c #50E050",
"9@	c #57E357",
"0@	c #61E561",
"a@	c #5FE45F",
"b@	c #5AE35A",
"c@	c #44DE44",
"d@	c #10BC10",
"e@	c #1D3E1D",
"f@	c #8D8D8D",
"g@	c #B8B8B8",
"h@	c #D1D1D1",
"i@	c #A4A4A4",
"j@	c #393939",
"k@	c #727272",
"l@	c #ECECEC",
"m@	c #9FA09F",
"n@	c #125512",
"o@	c #15C815",
"p@	c #21D521",
"q@	c #2CD82C",
"r@	c #36DB36",
"s@	c #40DC40",
"t@	c #47DE47",
"u@	c #4BDF4B",
"v@	c #4EE04E",
"w@	c #4FE14F",
"x@	c #4DE04D",
"y@	c #40DD40",
"z@	c #16C016",
"A@	c #0D490D",
"B@	c #868786",
"C@	c #ADADAD",
"D@	c #C6C6C6",
"E@	c #D8D8D8",
"F@	c #D6D6D6",
"G@	c #A5A5A5",
"H@	c #484848",
"I@	c #6E6E6E",
"J@	c #D9D9D9",
"K@	c #EDEDED",
"L@	c #6F796F",
"M@	c #107110",
"N@	c #14C814",
"O@	c #1ED41E",
"P@	c #28D728",
"Q@	c #30D830",
"R@	c #36DA36",
"S@	c #3DDC3D",
"T@	c #3EDC3E",
"U@	c #38DB38",
"V@	c #1AC51A",
"W@	c #0C690C",
"X@	c #606860",
"Y@	c #BFBFBF",
"Z@	c #D2D2D2",
"`@	c #D7D7D7",
" #	c #DADADA",
".#	c #B3B3B3",
"+#	c #646464",
"@#	c #D4D4D4",
"##	c #DBDBDB",
"$#	c #566F56",
"%#	c #0B8A0B",
"&#	c #11CB11",
"*#	c #19D319",
"=#	c #26D626",
"-#	c #2AD72A",
";#	c #2DD82D",
">#	c #1BCD1B",
",#	c #0C850C",
"'#	c #556955",
")#	c #B6B6B6",
"!#	c #D0D0D0",
"~#	c #DCDCDC",
"{#	c #EBEBEB",
"]#	c #A6A6A6",
"^#	c #E3E3E3",
"/#	c #E8E8E8",
"(#	c #BBBCBB",
"_#	c #3A643A",
":#	c #04A204",
"<#	c #0ACE0A",
"[#	c #11D111",
"}#	c #16D216",
"|#	c #1AD31A",
"1#	c #16D116",
"2#	c #079F07",
"3#	c #496A49",
"4#	c #C3C3C3",
"5#	c #626262",
"6#	c #494949",
"7#	c #E6E6E6",
"8#	c #747774",
"9#	c #074107",
"0#	c #01BC01",
"a#	c #03CD03",
"b#	c #06CE06",
"c#	c #09CF09",
"d#	c #0ACF0A",
"e#	c #04BB04",
"f#	c #306230",
"g#	c #E4E4E4",
"h#	c #E7E7E7",
"i#	c #606060",
"j#	c #1E1E1E",
"k#	c #919191",
"l#	c #146914",
"m#	c #00C500",
"n#	c #00CD00",
"o#	c #00C100",
"p#	c #1F631F",
"q#	c #C5C5C5",
"r#	c #E9EAEA",
"s#	c #E9EBE9",
"t#	c #5D5D5D",
"u#	c #282828",
"v#	c #979797",
"w#	c #D3D3D3",
"x#	c #747974",
"y#	c #047D04",
"z#	c #00C700",
"A#	c #00C400",
"B#	c #047004",
"C#	c #7C807C",
"D#	c #DFE4DF",
"E#	c #C7DBC6",
"F#	c #B2D3B0",
"G#	c #AECDB1",
"H#	c #5B5B5B",
"I#	c #353535",
"J#	c #929292",
"K#	c #F2F2F2",
"L#	c #D4D5D4",
"M#	c #637E63",
"N#	c #008C00",
"O#	c #008800",
"P#	c #657F65",
"Q#	c #BCD3BF",
"R#	c #76B876",
"S#	c #61B160",
"T#	c #8DBF91",
"U#	c #DEDEDE",
"V#	c #595959",
"W#	c #343434",
"X#	c #969696",
"Y#	c #CFD1CF",
"Z#	c #627F62",
"`#	c #628062",
" $	c #D3D6D3",
".$	c #D6E1D8",
"+$	c #B3CFB4",
"@$	c #B7CDB8",
"#$	c #C3CDC4",
"$$	c #B5B5B5",
"%$	c #474747",
"&$	c #2D2D2D",
"*$	c #9A9A9A",
"=$	c #D8D9D8",
"-$	c #C6C7C6",
";$	c #8C8C8C",
">$	c #4E4E4E",
",$	c #272727",
"'$	c #232323",
")$	c #DFDFDF",
"!$	c #BBBBBB",
"~$	c #AFAFAF",
"{$	c #9D9D9D",
"]$	c #747474",
"^$	c #363636",
"/$	c #949494",
"($	c #C8C8C8",
"_$	c #A1A1A1",
":$	c #838383",
"<$	c #666666",
"[$	c #3F3F3F",
"}$	c #B0B0B0",
"|$	c #8F8F8F",
"1$	c #7B7B7B",
"2$	c #707070",
"3$	c #323232",
"4$	c #5C5C5C",
"5$	c #4A4A4A",
"                          . + @ # $ %                           ",
"                      & * = - ; > , ' ) !                       ",
"                  ~ { ] ^ / ( _ : < [ } | 1 2                   ",
"                3 4 5 6 7 8 9 0 a b c d e f g h                 ",
"              i j k l m n o p q r s t u v w x y z               ",
"              A B C D D E F G H I J K L M N O P Q               ",
"            R S T U V V W X Y Z `  ...+.@.#.$.%.&.*.            ",
"            =.-.;.>.,.'.).!.~.{.].^./.(._.:.<.[.}.|.            ",
"            1.2.3.4.5.6.7.8.9.0.a.b.c.d.e.f.g.h.i.j.            ",
"            k.l.m.n.o.p.q.r.s.t.u.v.w.x.y.z.A.B.C.D.            ",
"            E.F.G.H.I.J.K.L.M.N.O.P.Q.x.R.S.T.U.V.W.            ",
"            X.Y.Z.`. +.+++@+#+$+%+&+O.x.*+=+-+;+>+,+            ",
"          '+)+!+~+{+]+^+/+(+M.N.O._+Q.x.:+<+[+}+|+1+            ",
"    2+3+4+5+6+7+8+9+0+a+b+c+d+t.e+f+w.x.g+h+i+j+k+l+            ",
"  m+n+o+p+q+r+s+t+u+v+w+x+y+L.z+A+B+s.C+D+E+F+G+H+I+            ",
"  J+K+L+o+p+M+N+O+P+Q+R+S+T+U+(+V+s.W+X+Y+Z+`+ @.@+@@@          ",
"  #@$@K+L+%@&@*@=@-@;@>@,@'@T+y+)@r.)@!@~@{@]@^@/@(@_@:@        ",
"  <@[@}@K+|@1@2@3@4@5@6@7@~@8@9@T+0@0@a@b@c@d@e@f@g@h@i@j@      ",
"  k@o+l@}@K+L+%@m@n@o@p@q@r@s@t@u@v@w@x@y@z@A@B@C@D@E@F@G@H@    ",
"  I@J@%@K@}@K+L+o+L@M@N@O@P@Q@R@7@S@T@U@V@W@X@C@Y@Z@F@`@ #.#@@  ",
"  +#@###o+[@$@K+L+Z@$#%#&#*#p@=#-#;#q@>#,#'#)#!#~#%@n+L+{#|@3+  ",
"  :@]#F@##^#[@$@K+/#(#_#:#<#[#}#|#-@1#2#3#4#n+/#|@/#/#L+{#|@5#  ",
"    6#5+`@##^#K@}@K+7#8#9#0#a#b#c#d#e#f#g@o+g#n+7#h#|@{#l@/#i#  ",
"      j#4+q+##%@l@}@K+{#k#l#m#n#n#o#p#q#l@7#g#7#/#|@{#r#s#7#t#  ",
"        u#v#w# #%@K@$@K+l@x#y#z#A#B#C#^#7#g#7#/#|@D#E#F#G#g#H#  ",
"          I#J#Z@J@1@l@K#^#L#M#N#O#P#~#^#g#7#h#|@{#Q#R#S#T#U#V#  ",
"            W#X#w#E@U#L+^# #Y#Z#`# $^#g#7#h#|@{#l@.$+$@$#$$$%$  ",
"              &$*$@# #g#o+~#U#=$ #^#g#n+h#/#7#U#h@-$(#;$>$,$    ",
"                '$_@Z@)$o+U#1@%@o+o+o+)$h@!$~${$]$%$            ",
"                  ^$/$F@%@)$)$)$p+($_$/$:$<$                    ",
"                    [$(@~###}$|$1$2$                            ",
"                      3$4$5$                                    "};
