/* XPM */
static char * logo_xpm[] = {
"48 48 846 2",
"  	c None",
". 	c #595A59",
"+ 	c #0D0E0D",
"@ 	c #222322",
"# 	c #D3D3D3",
"$ 	c #F7F7F7",
"% 	c #6F706E",
"& 	c #161716",
"* 	c #CFCFCF",
"= 	c #F5F5F5",
"- 	c #B8B8B8",
"; 	c #F2F2F2",
"> 	c #7A7A7A",
", 	c #000000",
"' 	c #101010",
") 	c #9B9C9B",
"! 	c #F0F0F0",
"~ 	c #8B8C8B",
"{ 	c #0A0A0A",
"] 	c #8F908F",
"^ 	c #EEEEEE",
"/ 	c #9FA09F",
"( 	c #7C7C7B",
"_ 	c #E1E1E1",
": 	c #898A89",
"< 	c #0F0F0F",
"[ 	c #8C8D8C",
"} 	c #EDEEED",
"| 	c #828281",
"1 	c #ECECEC",
"2 	c #6E6E6D",
"3 	c #DFDFDF",
"4 	c #80807F",
"5 	c #818180",
"6 	c #6D6E6D",
"7 	c #808180",
"8 	c #6D6D6C",
"9 	c #858584",
"0 	c #040504",
"a 	c #7E7F7E",
"b 	c #EBEBEB",
"c 	c #9A9B9A",
"d 	c #8D8D8D",
"e 	c #060606",
"f 	c #EAEAE9",
"g 	c #595958",
"h 	c #696968",
"i 	c #E2E2E2",
"j 	c #6C6C6B",
"k 	c #010101",
"l 	c #737372",
"m 	c #DFDFDE",
"n 	c #B8B8B7",
"o 	c #030303",
"p 	c #393A39",
"q 	c #CBCBCA",
"r 	c #989998",
"s 	c #0E0E0D",
"t 	c #252525",
"u 	c #ADADAD",
"v 	c #1D1D1D",
"w 	c #141414",
"x 	c #7F7F7E",
"y 	c #E5E5E5",
"z 	c #404140",
"A 	c #171717",
"B 	c #262726",
"C 	c #070707",
"D 	c #0C0C0C",
"E 	c #0E0E0E",
"F 	c #272726",
"G 	c #3C3C3B",
"H 	c #F1F1F1",
"I 	c #E1EFCA",
"J 	c #EFF5E5",
"K 	c #E9F1DB",
"L 	c #FBFBFB",
"M 	c #E6F1D3",
"N 	c #F8F8F8",
"O 	c #F7F9F3",
"P 	c #B5B6B5",
"Q 	c #D1D1D1",
"R 	c #C1C2C1",
"S 	c #272827",
"T 	c #474746",
"U 	c #444544",
"V 	c #040404",
"W 	c #020202",
"X 	c #2F2F2E",
"Y 	c #A2A3A2",
"Z 	c #C9C9C9",
"` 	c #F2F7EA",
" .	c #FBFCFA",
"..	c #D4E8B3",
"+.	c #CCE0AA",
"@.	c #D1DFB8",
"#.	c #F3F4F2",
"$.	c #D0E5AB",
"%.	c #E9F2D8",
"&.	c #F9F9F9",
"*.	c #707170",
"=.	c #2B2B2B",
"-.	c #050505",
";.	c #181918",
">.	c #525352",
",.	c #515151",
"'.	c #2E2E2E",
").	c #262625",
"!.	c #393938",
"~.	c #5C5D5C",
"{.	c #7A7A79",
"].	c #B3B3B2",
"^.	c #878887",
"/.	c #3C3D3C",
"(.	c #262626",
"_.	c #2D2D2C",
":.	c #454544",
"<.	c #6F6F6E",
"[.	c #BEBFBE",
"}.	c #4D4E4D",
"|.	c #808080",
"1.	c #D9DAD9",
"2.	c #F3F3F3",
"3.	c #E7F2D4",
"4.	c #E9EFDD",
"5.	c #F0F4EA",
"6.	c #D8EABB",
"7.	c #B1D07D",
"8.	c #B8CE93",
"9.	c #CADCAC",
"0.	c #BAD88A",
"a.	c #DDE2D6",
"b.	c #D7E7BC",
"c.	c #ECF4DD",
"d.	c #FAFAF9",
"e.	c #292A29",
"f.	c #959594",
"g.	c #898988",
"h.	c #222222",
"i.	c #151514",
"j.	c #191919",
"k.	c #BBBCBA",
"l.	c #8F8F8E",
"m.	c #202120",
"n.	c #151615",
"o.	c #8B8B8A",
"p.	c #EFEFEF",
"q.	c #4B4B4B",
"r.	c #161616",
"s.	c #AFB2A9",
"t.	c #E3EBD6",
"u.	c #E8F1D9",
"v.	c #F0F5E8",
"w.	c #D3E1BB",
"x.	c #DAE5C6",
"y.	c #DDE9C7",
"z.	c #A3CB62",
"A.	c #A5C571",
"B.	c #C1D1A4",
"C.	c #A8CB6D",
"D.	c #CDD5BF",
"E.	c #D4E1BF",
"F.	c #EAEDE4",
"G.	c #E7F0D7",
"H.	c #4E4E4D",
"I.	c #333332",
"J.	c #484847",
"K.	c #3F3F3E",
"L.	c #131413",
"M.	c #434343",
"N.	c #505050",
"O.	c #818181",
"P.	c #686968",
"Q.	c #B9BAB8",
"R.	c #4C4C4C",
"S.	c #7C7D7C",
"T.	c #B4B5B4",
"U.	c #464645",
"V.	c #474846",
"W.	c #6E716A",
"X.	c #9B9E95",
"Y.	c #CEDABC",
"Z.	c #CBDFA8",
"`.	c #DFE8CF",
" +	c #BFD896",
".+	c #C6D9A5",
"++	c #CBDCAF",
"@+	c #9FC958",
"#+	c #9EC165",
"$+	c #B5CC8E",
"%+	c #9CC656",
"&+	c #BECCA7",
"*+	c #DAE1CE",
"=+	c #D4E5B7",
"-+	c #0B0C0B",
";+	c #1A1A19",
">+	c #5A5A59",
",+	c #8E8F8E",
"'+	c #B6B7B6",
")+	c #BDBDBC",
"!+	c #9E9E9D",
"~+	c #020201",
"{+	c #888988",
"]+	c #151515",
"^+	c #7D7D7C",
"/+	c #BABBBA",
"(+	c #D8D8D8",
"_+	c #2C2C2C",
":+	c #747473",
"<+	c #131312",
"[+	c #313131",
"}+	c #5D5E5A",
"|+	c #979A94",
"1+	c #3C3F38",
"2+	c #4E5346",
"3+	c #A3AB96",
"4+	c #B7C999",
"5+	c #D0DDBA",
"6+	c #D0DEB7",
"7+	c #BFD798",
"8+	c #B0D079",
"9+	c #A9C974",
"0+	c #A3CA63",
"a+	c #98C64C",
"b+	c #94C149",
"c+	c #A9C47C",
"d+	c #95C646",
"e+	c #B7C69D",
"f+	c #C0D69C",
"g+	c #D7E0C6",
"h+	c #60605F",
"i+	c #525251",
"j+	c #A5A6A5",
"k+	c #E6E6E6",
"l+	c #B2B2B1",
"m+	c #0A0B0A",
"n+	c #383837",
"o+	c #E4E4E4",
"p+	c #FAFAFA",
"q+	c #40403F",
"r+	c #646463",
"s+	c #141514",
"t+	c #424342",
"u+	c #535551",
"v+	c #848582",
"w+	c #393C35",
"x+	c #7D8471",
"y+	c #3E3F3B",
"z+	c #495239",
"A+	c #9AAE78",
"B+	c #BBD492",
"C+	c #D6DEC8",
"D+	c #BDD88F",
"E+	c #A9CC6E",
"F+	c #A4C76B",
"G+	c #93C442",
"H+	c #8DC432",
"I+	c #8EC337",
"J+	c #8AC32C",
"K+	c #99C256",
"L+	c #8DC532",
"M+	c #A2C16F",
"N+	c #A0C95E",
"O+	c #CDD5C0",
"P+	c #F0F1EF",
"Q+	c #FCFCFC",
"R+	c #3E3E3E",
"S+	c #1F1F1E",
"T+	c #7F807F",
"U+	c #E1E2E1",
"V+	c #444444",
"W+	c #171817",
"X+	c #30302F",
"Y+	c #474847",
"Z+	c #C6C7C6",
"`+	c #ABABAB",
" @	c #686965",
".@	c #373D2F",
"+@	c #353635",
"@@	c #7D7F78",
"#@	c #777873",
"$@	c #111211",
"%@	c #6E785D",
"&@	c #353B2A",
"*@	c #373F28",
"=@	c #72894B",
"-@	c #A3C072",
";@	c #BED29D",
">@	c #A9CF6A",
",@	c #9AC74F",
"'@	c #9FC06A",
")@	c #91C241",
"!@	c #8DC238",
"~@	c #86C520",
"{@	c #86C61F",
"]@	c #8BC134",
"^@	c #8AC32D",
"/@	c #87C622",
"(@	c #91C142",
"_@	c #A3C76A",
":@	c #D2DFBD",
"<@	c #EFF3E8",
"[@	c #1B1B1B",
"}@	c #353535",
"|@	c #A9AAA9",
"1@	c #0C0C0B",
"2@	c #787877",
"3@	c #373837",
"4@	c #313130",
"5@	c #6B6C6B",
"6@	c #8FA072",
"7@	c #353A2E",
"8@	c #111110",
"9@	c #1C1C1B",
"0@	c #495438",
"a@	c #6F7C59",
"b@	c #788B59",
"c@	c #1D2117",
"d@	c #151710",
"e@	c #738850",
"f@	c #A6BE80",
"g@	c #ACCD75",
"h@	c #95C742",
"i@	c #94C348",
"j@	c #8BC52B",
"k@	c #8BC230",
"l@	c #89C32A",
"m@	c #89C429",
"n@	c #88C428",
"o@	c #87C425",
"p@	c #98C155",
"q@	c #B2CB88",
"r@	c #F7F8F7",
"s@	c #434342",
"t@	c #C1C1C1",
"u@	c #BEBFBC",
"v@	c #979995",
"w@	c #8C8D8B",
"x@	c #7A7B78",
"y@	c #B2C199",
"z@	c #93A970",
"A@	c #758161",
"B@	c #6D785B",
"C@	c #6B8047",
"D@	c #90AB62",
"E@	c #A5BF7B",
"F@	c #7C984E",
"G@	c #5D7B2B",
"H@	c #6C8D35",
"I@	c #97BC59",
"J@	c #AACA75",
"K@	c #96C843",
"L@	c #8FC731",
"M@	c #8CC42E",
"N@	c #88C524",
"O@	c #87C523",
"P@	c #87C522",
"Q@	c #89C329",
"R@	c #88C426",
"S@	c #91BB4B",
"T@	c #90BE45",
"U@	c #91C43D",
"V@	c #BDD29C",
"W@	c #EFF0EF",
"X@	c #3F3F3F",
"Y@	c #C7C8C7",
"Z@	c #8E8E8E",
"`@	c #0A0A09",
" #	c #767774",
".#	c #626362",
"+#	c #72766C",
"@#	c #393B36",
"##	c #2D3029",
"$#	c #7D8473",
"%#	c #BCCDA0",
"&#	c #97C54C",
"*#	c #AFC093",
"=#	c #99BA62",
"-#	c #A2BE74",
";#	c #9DC755",
">#	c #A8C970",
",#	c #A3C767",
"'#	c #97C152",
")#	c #98BC5D",
"!#	c #A3C56B",
"~#	c #A4CB61",
"{#	c #9BC753",
"]#	c #92C937",
"^#	c #8FC636",
"/#	c #89C625",
"(#	c #8CBF38",
"_#	c #8CBF3A",
":#	c #8DC039",
"<#	c #97BA5E",
"[#	c #A6BB83",
"}#	c #A2C469",
"|#	c #CBDBB0",
"1#	c #F4F6F0",
"2#	c #454545",
"3#	c #242424",
"4#	c #BABABA",
"5#	c #767776",
"6#	c #55594D",
"7#	c #373735",
"8#	c #45493F",
"9#	c #636E50",
"0#	c #8E9C76",
"a#	c #B1CD84",
"b#	c #9EC958",
"c#	c #AFC787",
"d#	c #A6CC67",
"e#	c #A3CA62",
"f#	c #A5CC64",
"g#	c #AAD068",
"h#	c #B0D56F",
"i#	c #B2DA6B",
"j#	c #AFCB7D",
"k#	c #ADD665",
"l#	c #A7CF63",
"m#	c #A1CA5C",
"n#	c #98C64B",
"o#	c #91C73A",
"p#	c #8FC23A",
"q#	c #8CC037",
"r#	c #90BD47",
"s#	c #92BC4F",
"t#	c #89C32B",
"u#	c #8FBD42",
"v#	c #9FB876",
"w#	c #98BE5A",
"x#	c #AAC282",
"y#	c #CBD0C3",
"z#	c #C7D4B2",
"A#	c #E2E7DA",
"B#	c #909090",
"C#	c #BDC3B2",
"D#	c #949F82",
"E#	c #8C977B",
"F#	c #8FA56D",
"G#	c #A9C181",
"H#	c #A4CA65",
"I#	c #94C73F",
"J#	c #93C83C",
"K#	c #A6CB68",
"L#	c #A0CD52",
"M#	c #AAD362",
"N#	c #B4DA71",
"O#	c #BEDF83",
"P#	c #C2DE92",
"Q#	c #BDD593",
"R#	c #BAD883",
"S#	c #B0D56D",
"T#	c #A5D05D",
"U#	c #9FC65E",
"V#	c #9BC15B",
"W#	c #97BD59",
"X#	c #95BA57",
"Y#	c #94C14A",
"Z#	c #9BBC64",
"`#	c #A0BC71",
" $	c #95BE51",
".$	c #99BF59",
"+$	c #B0C490",
"@$	c #A5C474",
"#$	c #E8E8E7",
"$$	c #1E1E1D",
"%$	c #8A8A89",
"&$	c #E4E4E3",
"*$	c #939393",
"=$	c #8A8B8A",
"-$	c #141710",
";$	c #84926D",
">$	c #E2E3E1",
",$	c #D4DFC2",
"'$	c #C4D2AC",
")$	c #ADCA7C",
"!$	c #A4C868",
"~$	c #9EC55E",
"{$	c #93C443",
"]$	c #97C250",
"^$	c #9DCA52",
"/$	c #A3D154",
"($	c #B1D76E",
"_$	c #C1E189",
":$	c #D2E8AE",
"<$	c #D8E6BF",
"[$	c #C7D1B5",
"}$	c #C3D3A8",
"|$	c #B8D387",
"1$	c #ACD368",
"2$	c #A3C863",
"3$	c #A3C36D",
"4$	c #A2C16D",
"5$	c #A9C082",
"6$	c #A2C16E",
"7$	c #99C05B",
"8$	c #C4C8BC",
"9$	c #BCCCA1",
"0$	c #A4C272",
"a$	c #B8C4A3",
"b$	c #C7D0B8",
"c$	c #B9CE97",
"d$	c #E2E4DD",
"e$	c #A0A0A0",
"f$	c #3E3E3D",
"g$	c #292928",
"h$	c #363636",
"i$	c #0C0D0B",
"j$	c #778363",
"k$	c #B4D185",
"l$	c #E7ECDF",
"m$	c #C8DCA6",
"n$	c #B2CD84",
"o$	c #9DC55C",
"p$	c #95C447",
"q$	c #94C445",
"r$	c #97C44D",
"s$	c #A1C663",
"t$	c #A7D061",
"u$	c #B7DA77",
"v$	c #CEE5A6",
"w$	c #E7F1D7",
"x$	c #E9EBE6",
"y$	c #D9DAD7",
"z$	c #D8E2C7",
"A$	c #C1D3A1",
"B$	c #B2D07E",
"C$	c #A5C66E",
"D$	c #A8C37B",
"E$	c #ADC586",
"F$	c #BDC9A8",
"G$	c #B4CB8D",
"H$	c #C4CFB2",
"I$	c #E8E9E8",
"J$	c #CCD8B8",
"K$	c #CBD2BF",
"L$	c #E7E8E7",
"M$	c #E5E6E2",
"N$	c #E9EAE9",
"O$	c #EDEDED",
"P$	c #2B2B2A",
"Q$	c #5B5B5A",
"R$	c #10130B",
"S$	c #7E8F61",
"T$	c #BACA9F",
"U$	c #A6CD67",
"V$	c #CFDDB8",
"W$	c #A8CC6C",
"X$	c #A1C567",
"Y$	c #8FC439",
"Z$	c #92C441",
"`$	c #93CB37",
" %	c #9DCF48",
".%	c #AAD65E",
"+%	c #B9D588",
"@%	c #D3E6B3",
"#%	c #EEF0EA",
"$%	c #D7D7D7",
"%%	c #D9DED1",
"&%	c #C3CFAE",
"*%	c #B7CD92",
"=%	c #AFC48B",
"-%	c #AEC587",
";%	c #B6C69D",
">%	c #D1D6C8",
",%	c #C9D9AC",
"'%	c #ADCB7B",
")%	c #C0CDAA",
"!%	c #F2F4F0",
"~%	c #EAEBE9",
"{%	c #F6F6F6",
"]%	c #E8E8E8",
"^%	c #ABACAB",
"/%	c #575757",
"(%	c #2A2A2A",
"_%	c #1B1C1B",
":%	c #242423",
"<%	c #666766",
"[%	c #0A0C07",
"}%	c #202615",
"|%	c #82867C",
"1%	c #BACF98",
"2%	c #ACCA7B",
"3%	c #A0C75F",
"4%	c #A8CA70",
"5%	c #96C44C",
"6%	c #8DC630",
"7%	c #93CA38",
"8%	c #9CD043",
"9%	c #AAD65D",
"0%	c #B2C492",
"a%	c #CEDDB3",
"b%	c #DCDED9",
"c%	c #E0E0E0",
"d%	c #D1D4CB",
"e%	c #C9CFBE",
"f%	c #C3D2A9",
"g%	c #C1D1A6",
"h%	c #C1CDAC",
"i%	c #C9CFBF",
"j%	c #E7E7E7",
"k%	c #C6D8A8",
"l%	c #C2D0AA",
"m%	c #D4D4D4",
"n%	c #B0B0AF",
"o%	c #999999",
"p%	c #A5A5A4",
"q%	c #C8C8C8",
"r%	c #6E6F6E",
"s%	c #030302",
"t%	c #1E2119",
"u%	c #879079",
"v%	c #BED49B",
"w%	c #9EC45E",
"x%	c #98C350",
"y%	c #8AC529",
"z%	c #8EC338",
"A%	c #8CC72B",
"B%	c #92CB34",
"C%	c #9BCF42",
"D%	c #A6D15C",
"E%	c #B5D57C",
"F%	c #C4D1AC",
"G%	c #C8CCC0",
"H%	c #E0E2DD",
"I%	c #CECFCD",
"J%	c #D0D4C9",
"K%	c #D6DBCD",
"L%	c #D4DEC2",
"M%	c #CADBAD",
"N%	c #CBD5BB",
"O%	c #DDDEDB",
"P%	c #E5EED6",
"Q%	c #E0E4DA",
"R%	c #D2DCC2",
"S%	c #141A0A",
"T%	c #4C602B",
"U%	c #8AB04C",
"V%	c #AACF6C",
"W%	c #9FC363",
"X%	c #93C246",
"Y%	c #8CC333",
"Z%	c #8EC436",
"`%	c #99CD41",
" &	c #A1D24D",
".&	c #AFD66A",
"+&	c #B9CE95",
"@&	c #C6CFB7",
"#&	c #D6DBCB",
"$&	c #CCD1C4",
"%&	c #DDDFDA",
"&&	c #E3E6DE",
"*&	c #E3E7DD",
"=&	c #D8E3C6",
"-&	c #DDDEDA",
";&	c #F6F8F3",
">&	c #EBEEE4",
",&	c #EFF0EE",
"'&	c #050605",
")&	c #161C0B",
"!&	c #56653D",
"~&	c #97AE71",
"{&	c #A6C770",
"]&	c #94C544",
"^&	c #8DC433",
"/&	c #8DC335",
"(&	c #8CC135",
"_&	c #89C428",
":&	c #8AC52A",
"<&	c #9EBC6D",
"[&	c #A7C07C",
"}&	c #AAC973",
"|&	c #B0D276",
"1&	c #BCCD9F",
"2&	c #D5DACB",
"3&	c #5B5C5B",
"4&	c #515150",
"5&	c #8C8C8C",
"6&	c #939392",
"7&	c #3C3C3C",
"8&	c #2A341A",
"9&	c #465D21",
"0&	c #77934A",
"a&	c #A0C16C",
"b&	c #9CC558",
"c&	c #93C148",
"d&	c #8BC231",
"e&	c #88C427",
"f&	c #8AC22E",
"g&	c #8CC134",
"h&	c #90C13F",
"i&	c #95C645",
"j&	c #9FC859",
"k&	c #B1C58E",
"l&	c #BAC4A8",
"m&	c #BECAAA",
"n&	c #CAD5B8",
"o&	c #424241",
"p&	c #2D351F",
"q&	c #5E6E43",
"r&	c #8EAE59",
"s&	c #9FC65F",
"t&	c #9DC35F",
"u&	c #9CC061",
"v&	c #91C143",
"w&	c #88C425",
"x&	c #8EC237",
"y&	c #9ABE5D",
"z&	c #9EC164",
"A&	c #B2C592",
"B&	c #CCD6BA",
"C&	c #DCE0D4",
"D&	c #121211",
"E&	c #5F605F",
"F&	c #D4D5D3",
"G&	c #D5D8CF",
"H&	c #A7C772",
"I&	c #8DC236",
"J&	c #85C61D",
"K&	c #90BD46",
"L&	c #9EBC6E",
"M&	c #AFC290",
"N&	c #C2CAB6",
"O&	c #DCE0D7",
"P&	c #EDEEEA",
"Q&	c #F4F5F1",
"R&	c #E0E1E0",
"S&	c #9C9C9B",
"T&	c #727372",
"U&	c #50504F",
"V&	c #BCBCBB",
"W&	c #E0EDC9",
"X&	c #CDE2AA",
"Y&	c #BCD691",
"Z&	c #AECB7D",
"`&	c #96C44B",
" *	c #89C427",
".*	c #87C521",
"+*	c #8DBF3B",
"@*	c #98BF59",
"#*	c #A2C46A",
"$*	c #B4CC8A",
"%*	c #D1DBBF",
"&*	c #E8ECE1",
"**	c #DEDEDD",
"=*	c #D0D0CF",
"-*	c #C7C7C6",
";*	c #D5D5D4",
">*	c #F4F4F4",
",*	c #F9FAF7",
"'*	c #E5EADC",
")*	c #C6D9A6",
"!*	c #95C842",
"~*	c #8AC42B",
"{*	c #8AC22F",
"]*	c #94B75C",
"^*	c #9EB971",
"/*	c #A6BE7E",
"(*	c #B3C398",
"_*	c #C5CCBA",
":*	c #DDDEDD",
"<*	c #EFF6E4",
"[*	c #B7DA7E",
"}*	c #9ECC54",
"|*	c #9AC456",
"1*	c #96BD55",
"2*	c #88C329",
"3*	c #8BC133",
"4*	c #94BD52",
"5*	c #A6C277",
"6*	c #BDCEA2",
"7*	c #D9DCD5",
"8*	c #C0DE8C",
"9*	c #AFD078",
"0*	c #A8C47B",
"a*	c #A3BF75",
"b*	c #8FC33C",
"c*	c #95BD53",
"d*	c #94BA56",
"e*	c #95BA5A",
"f*	c #96BB5A",
"g*	c #A8C579",
"h*	c #BDCF9F",
"i*	c #C8D9AB",
"j*	c #D8E5C0",
"k*	c #E5EED4",
"l*	c #E9F2DA",
"m*	c #D6E1C4",
"n*	c #C0CDAB",
"o*	c #B2C88D",
"p*	c #A5C66F",
"q*	c #9DC162",
"r*	c #A3BA7C",
"s*	c #A4BF76",
"t*	c #AEC18F",
"u*	c #A6C278",
"v*	c #9FC365",
"w*	c #ADCA7D",
"x*	c #E0E1DF",
"y*	c #F2F3F0",
"z*	c #E8ECE2",
"A*	c #DFE4D8",
"B*	c #B7D28A",
"C*	c #A7C96F",
"D*	c #BAC6A7",
"E*	c #A8C873",
"F*	c #BCC9A6",
"G*	c #C5D1B2",
"H*	c #ACCD77",
"I*	c #C0CAAF",
"J*	c #B1C88B",
"K*	c #ACD170",
"L*	c #EDF0E8",
"M*	c #E7EFD8",
"N*	c #C0D996",
"O*	c #C9D1BB",
"P*	c #BBD09A",
"Q*	c #C0D2A4",
"R*	c #CED6C2",
"S*	c #D7E2C6",
"T*	c #BCD88D",
"U*	c #BBCE9D",
"V*	c #DEE0D9",
"W*	c #CAD6B7",
"X*	c #AACF6D",
"Y*	c #E9EDE1",
"Z*	c #EDF4DF",
"`*	c #E8EAE5",
" =	c #D8E0CA",
".=	c #C4D9A1",
"+=	c #DADCD7",
"@=	c #E7E8E5",
"#=	c #ECF0E5",
"$=	c #DAE7C4",
"%=	c #9BC852",
"&=	c #EEF0EB",
"*=	c #D3DEBF",
"==	c #F2F5ED",
"-=	c #E2ECD0",
";=	c #E2E6DC",
">=	c #F4F8EE",
",=	c #F0F3EB",
"'=	c #B0CC82",
")=	c #DEDFDD",
"!=	c #F0F6E5",
"~=	c #F3F8EC",
"              . + @ # $     % + & * =       + + - ;                                             ",
"              > , ' ) !     ~ , { ] ^     / , , ( _                                             ",
"              : , < [ }     ~ , { | 1     / , , 2 3                                             ",
"              : , < [ }     ~ , { 4 1     / , , 2 3                                             ",
"              : , < [ }     ~ , { 5 1     / , , 6 3                                             ",
"              : , < [ }     ~ , { 5 1     / , , 2 3                                             ",
"              : , < [ }     ~ , { 5 1     / , , 2 3                                             ",
"              : , < [ }     ~ , { 7 1     / , , 2 3                                             ",
"              : , < [ }     ~ , { 7 1     / , , 8 3                                             ",
"              : , < [ }     9 , 0 a b     c , , 8 3                                             ",
"              d , e 4 f     g , , h i     j , k l m                                             ",
"              n o , p q ! r s , , t n ! u v , w x y                                             ",
"              ^ z , , A B C , D o , E F D , k G / H                 I J K L M N O               ",
"            P Q R S , , , , E T U V , , , W X l Q Y Z           `  ...+.@.#.$.! %.&.            ",
"      *.=.-.k W ;.>.,.'.).!.~.{.].^./.(._.:.<.[.= }.|.1.2.    3.4.5.6.7.8.9.0.a.b.2.c.d.        ",
"    p W , , , , , , e.f./ g.h.i.j.~ k.l.m.w n.o.p.q.E r.s.t.u.v.w.x.y.z.A.B.C.D.E.F.G.=         ",
"  H., , ' I.J.K.L., , U # M.N.O.P.i.Q.M.R.S.J.s T.U.V.W.X.Y.Z.`. +.+++@+#+$+%+&+*+=+H $         ",
"  -+, ;+>+,+'+)+!+e., ~+{+]+^+/+(+_+:+<+h [+).}+|+1+2+3+4+5+6+7+8+9+0+a+b+c+d+e+f+g+p.L         ",
"h+, e i+j+k+= $ ^ l+m+, n+]+^.o+p+q+r+s+t+u+v+w+x+y+z+A+B+C+D+E+F+G+H+I+J+K+L+M+N+O+P+Q+        ",
"R+, S+T+U+        H V+, W+X+Y+Z+`+/. @.@+@@@#@$@%@&@*@=@-@;@>@,@'@)@!@~@{@]@^@/@(@_@:@<@Q+      ",
"[@, }@|@2.          4 , 1@2@3@$@4@X+5@6@7@8@9@0@a@b@c@d@e@f@g@h@i@j@k@{@{@l@m@n@o@p@q@E.r@      ",
"D , s@t@            [ , { 9 u@v@w@j.x@y@z@A@B@C@D@E@F@G@H@I@J@K@L@M@N@l@O@P@Q@R@S@T@U@V@W@      ",
"v , X@Y@            Z@, `@ #.#+#@###$#%#&#*#=#-#;#>#,#'#)#!#~#{#]#^#/#J+(#O@J+_#:#<#[#}#|#1#    ",
"2#, 3#4#            Z@, `@5#6#7#8#9#0#a#b#c#d#e#f#g#h#i#j#k#l#m#n#o#p#q#r#s#t#u#v#w#x#y#z#A#&.  ",
"B#, o ( b           ] , `@7 C#D#E#F#G#H#I#J#K#L#M#N#O#P#Q#R#S#T#U#V#W#X#Y#Z#`# $.$+$@$;@#$! &.  ",
"_ $$, E %$&$    *$( =$, -$;$>$,$'$)$!$~${$]$^$/$($_$:$<$[$}$|$1$2$3$4$5$6$7$8$9$0$a$b$c$d$&.    ",
"  e${ , k v f$g$o h$h , i$j$k$l$m$n$o$p$q$r$s$t$u$v$w$x$y$z$A$B$C$D$E$F$G$}#H$I$J$K$L$M$N$p+    ",
"  O$~ i., , , , , P$Q$, R$S$T$U$V$W$X$Y$Z$`$ %.%+%@%#%^ $%%%&%*%=%-%;%>%,%'%)%! !%~%{%p+p+      ",
"    ]%^%/%(%_%:%f$j <%[%}%|%1%2%3%4%5%U@6%7%8%9%0%a%b%c%$%d%e%f%g%h%i%j%x.k%l%p.Q+p+L           ",
"      ! m%n%o%*$p%q%r%s%t%u%v%H#w%x%y%z%A%B%C%D%E%F%G%H%I%J%K%L%M%N%O%= P%Q%R%H                 ",
"          2.1 O$H ! 4@S%T%U%V%'%W%X%Y%:#Z%Z$`% &.&+&@&#&$&%&&&*&=&-&! L ;&>&,&N                 ",
"                  ~.'&)&!&~&{&]&^&/&(&_&:&Z$<&[&}&|&1&2&%&p.{%= 2.! p+  L &.L                   ",
"    3&4&5&l+)+6&7&o 8&9&0&a&b&c&d&_&e&f&g&h&i&j&k&l&m&n&#$&.      L                             ",
"    o&, , , , , , W p&q&r&s&t&u&v&J+w&^@f&x&y&z&A&B&C&o+H                                       ",
"    ~.D&, , , , D X E&c F&G&1&H&K+I&P@J&N@K&L&M&N&O&P&Q&L                                       ",
"    R&S&T&. U&>+8 =$V&I$W&X&Y&Z&`& *.*R@Q@+*@*#*$*%*&*N                                         ",
"      O$**=*Z+-*;*j%>*  ,*'*)*!*~*{*_&R@]*^*/*(*_*:*; L                                         ",
"                        <*[*}*|*1*2*3*l@4*5*6*7*y 2.L                                           ",
"                        8*9*0*a*b*c*d*e*f*g*h*i*j*k*J                                           ",
"                      l*m*n*o*p*q*r*s*t*u*v*w*x*p.2.y*p+                                        ",
"                      L z*A*B*C*D*E*F*G*H*I*J*K*L*L p+L                                         ",
"                        L M*N*O*P*Q*R*S*T*U*V*W*X*Y*L                                           ",
"                          Z*`* =.=+=@=#=$=%=o+&=H%*={%                                          ",
"                            ==-=;=b N >=,='=)=p+N 2.N                                           ",
"                            Q+{%H &.  !=$ :@]%                                                  ",
"                              Q+L     ~=N >*=                                                   ",
"                                        L Q+L                                                   ",
"                                                                                                "};
